<svg width="192" height="77" viewBox="0 0 192 77" fill="none" xmlns="http://www.w3.org/2000/svg">
<g clip-path="url(#clip0)">
<path d="M77.9656 59.2454C77.249 58.4383 76.628 57.6788 75.9591 56.9667C75.9591 56.9667 75.8636 56.9667 75.7681 56.9667C75.6725 58.1535 75.768 59.3403 75.8158 60.4796C75.8158 60.8119 75.6725 60.9544 75.4336 61.0968C73.4272 62.1412 71.1341 61.0968 70.7997 58.8656C70.0831 55.3052 72.9972 49.9408 77.1535 50.9377C80.5931 52.172 79.7332 56.9192 77.9656 59.2454Z" fill="#F25187"/>
<path d="M132.714 59.2454C131.997 58.4383 131.376 57.6788 130.707 56.9667C130.707 56.9667 130.612 56.9667 130.516 56.9667C130.421 58.1535 130.516 59.3403 130.564 60.4796C130.564 60.8119 130.421 60.9544 130.182 61.0968C128.175 62.1412 125.882 61.0968 125.548 58.8656C124.831 55.3052 127.745 49.9408 131.902 50.9377C135.341 52.172 134.481 56.9192 132.714 59.2454Z" fill="#F25187"/>
<path d="M24.6987 73.6295C17.9149 73.6295 11.3222 70.7812 6.68824 65.8441C1.9587 60.907 -0.382181 54.3558 0.0477767 47.4723C0.859919 35.272 10.7012 25.4452 22.9311 24.6382C23.5521 24.5907 24.1254 24.5907 24.6987 24.5907C31.0525 24.5907 37.1197 26.9643 41.7059 31.3318C42.8525 32.4236 43.4257 33.8953 43.2824 35.4618C43.1391 37.0759 42.327 38.5475 40.9893 39.4495C40.0816 40.0667 38.9828 40.399 37.8841 40.399C36.5464 40.399 35.2565 39.8768 34.3011 38.9748C31.6736 36.5062 28.2817 35.1295 24.6509 35.1295C24.0299 35.1295 23.361 35.177 22.6922 35.272C16.5295 36.1739 11.4655 41.3009 10.7967 47.5198C10.3668 51.5549 11.5611 55.4002 14.2842 58.3909C16.9117 61.3342 20.7335 63.0432 24.6987 63.0432C27.8039 63.0432 30.7181 62.0938 33.1545 60.2424C34.11 59.5303 35.3043 59.103 36.4986 59.103C37.693 59.103 38.7917 59.4828 39.7472 60.1949C41.0849 61.2393 41.8492 62.7584 41.8492 64.4199C41.8492 66.0814 41.0849 67.5531 39.795 68.55C35.3999 71.8731 30.1926 73.6295 24.6987 73.6295Z" fill="#F25187"/>
<path d="M162.046 74.1041C159.18 74.1041 156.839 71.778 156.839 68.9297V42.0129C156.839 41.4907 156.839 40.9685 156.887 40.4463C157.699 31.3791 165.247 24.5431 174.419 24.5431H174.467C174.563 24.5431 174.658 24.5431 174.754 24.5431C183.974 24.733 191.522 31.9962 191.952 41.1109C192.191 45.9531 190.519 50.5579 187.127 54.0708C183.783 57.5838 179.245 59.5301 174.372 59.5301C172.7 59.5301 171.028 59.2928 169.403 58.8181L168.4 58.4383L167.301 57.7737L167.158 60.4321V68.9297C167.206 71.778 164.913 74.1041 162.046 74.1041ZM174.419 34.8446C170.741 34.8446 167.636 37.598 167.254 41.2533C167.206 41.5382 167.206 41.7755 167.206 42.0604C167.206 42.2977 167.206 42.5351 167.254 42.7724C167.683 46.4753 170.741 49.2287 174.467 49.2287C178.48 49.2287 181.729 46.0006 181.729 42.0604C181.729 38.1202 178.385 34.8446 174.419 34.8446Z" fill="#F25187"/>
<path d="M126.646 26.1096C117.092 26.1096 108.779 31.5689 104.671 39.4968C103.238 38.7847 101.613 38.4049 99.8457 38.4049C97.5048 38.4049 95.3072 39.1645 93.5396 40.3988C89.67 31.9962 81.0709 26.1096 71.1341 26.1096C68.6021 26.1096 66.1179 26.4894 63.8248 27.2015C59.7641 23.831 56.7544 20.1281 51.9771 16.5677C45.3366 11.6781 38.8395 17.1374 41.1326 23.4986C41.4192 24.2582 43.7601 29.0529 44.19 26.4419C43.6645 24.7804 42.1358 21.5048 44.1423 20.2705C45.7666 19.2736 47.2953 21.7896 47.6297 22.3593C48.8718 24.6855 52.5026 30.3347 53.7924 33.1355C49.254 37.5979 46.4354 43.7693 46.4354 50.6053C46.4354 64.1349 57.5187 75.1485 71.1341 75.1485C84.7494 75.1485 95.8327 64.1349 95.8327 50.6053C95.8327 49.1811 95.6894 47.8044 95.4506 46.4278C96.4538 44.9086 98.1736 43.9117 99.8457 43.9117C100.801 43.9117 101.804 44.244 102.617 44.8137C102.187 46.6651 101.948 48.6115 101.948 50.5578C101.948 64.0874 113.031 75.101 126.646 75.101C140.262 75.101 151.345 64.0874 151.345 50.5578C151.345 37.1232 140.262 26.1096 126.646 26.1096ZM72.3762 66.6509C64.6369 66.6509 58.3786 60.4321 58.3786 52.7416C58.3786 45.0511 64.6847 38.8322 72.3762 38.8322C80.0676 38.8322 86.3737 45.0511 86.3737 52.7416C86.3737 60.3846 80.1154 66.6509 72.3762 66.6509ZM127.888 66.6509C120.149 66.6509 113.891 60.4321 113.891 52.7416C113.891 45.0511 120.197 38.8322 127.888 38.8322C135.628 38.8322 141.886 45.0511 141.886 52.7416C141.886 60.3846 135.628 66.6509 127.888 66.6509Z" fill="#F25187"/>
<path d="M94.0652 30.0026C94.0652 30.145 93.8741 30.2399 93.8264 30.0975C93.3009 29.0531 92.3454 27.0593 90.8167 25.2079C85.9438 19.2264 84.3195 20.3657 79.2078 16.0457C69.5099 7.88051 90.2912 -2.04119 94.0652 30.0026Z" fill="#F25187"/>
<path d="M96.8838 31.0944C96.7882 31.1894 96.6449 31.0945 96.6927 30.9995C99.7024 17.6123 93.5396 16.2831 90.0522 7.54821C87.0425 -0.0473495 96.6927 -3.18052 99.989 4.08274C103.668 12.2005 102.521 23.1191 96.8838 31.0944Z" fill="#F25187"/>
<path d="M105.435 29.6226C102.855 31.8063 100.228 33.3729 100.323 33.2305C102.855 28.4833 108.063 17.897 104.719 8.11769C101.518 -1.23434 113.795 -2.27873 115.611 6.59858C117.283 15.0012 110.642 25.2077 105.435 29.6226Z" fill="#F25187"/>
<path d="M102.712 77.0001C88.6669 76.3355 92.6798 69.7843 92.6798 69.7843C92.6798 69.7843 95.3073 70.6863 95.6417 69.8792C97.2182 66.1764 97.4571 63.518 97.4571 63.518C102.282 62.8059 105.77 74.484 111.407 75.386C111.598 75.4335 111.598 75.6708 111.455 75.8133C109.687 77.0475 104.766 77.0475 102.712 77.0001Z" fill="#F25187"/>
<path d="M2.53191 17.1849H1.86309C1.38536 17.1849 1.00317 16.8052 1.00317 16.3304C1.00317 15.8557 1.38536 15.4759 1.86309 15.4759H2.57969V14.6689C2.57969 14.0992 3.05742 13.6245 3.63069 13.6245C4.20397 13.6245 4.6817 14.0992 4.6817 14.6689V15.4759H5.2072C5.68494 15.4759 6.06712 15.8557 6.06712 16.3304C6.06712 16.8052 5.68494 17.1849 5.2072 17.1849H4.6817V19.1788C4.6817 19.8909 5.44607 19.9858 5.82826 19.9858C6.35376 19.9858 6.78372 20.413 6.78372 20.9352C6.78372 21.4574 6.35376 21.8847 5.87603 21.8847C5.73271 21.8847 5.58939 21.8847 5.54162 21.8847C4.49061 21.8847 2.48414 21.5999 2.48414 19.4161V17.1849H2.53191Z" fill="#F25187"/>
<path d="M8.50352 12.865C9.12457 12.865 9.55453 13.3397 9.55453 13.9569V14.3366C9.55453 14.6689 9.55453 14.9063 9.55453 14.9063L9.6023 16.283C9.98449 15.6659 10.7489 15.2386 11.6088 15.2386C12.9464 15.2386 13.9497 15.8557 13.9497 17.6597V20.7454C13.9497 21.3625 13.4719 21.8372 12.8509 21.8372C12.2298 21.8372 11.7521 21.3625 11.7521 20.7454V18.0395C11.7521 17.4223 11.5132 17.185 11.0355 17.185C10.3667 17.185 9.93671 17.5647 9.74562 18.1344C9.65008 18.3718 9.65008 18.6566 9.65008 18.9414V20.6979C9.65008 21.3151 9.17235 21.7898 8.5513 21.7898C7.93025 21.7898 7.45251 21.3151 7.45251 20.6979V13.9569C7.45251 13.3397 7.93024 12.865 8.50352 12.865Z" fill="#F25187"/>
<path d="M18.3925 15.191C20.3035 15.191 21.4022 16.5203 21.4022 18.3242C21.4022 18.3717 21.4022 18.609 21.1156 18.7989C20.6857 19.0838 20.7334 19.0363 20.2079 19.0363H17.246C17.3893 19.8433 18.0581 20.1756 18.7747 20.1756C19.1569 20.1756 19.5391 20.0807 19.8257 19.9383C20.2557 19.7484 20.7812 19.8908 20.9723 20.318C21.2112 20.7453 21.0201 21.315 20.5423 21.5523C20.0646 21.7897 19.3958 21.9796 18.5359 21.9796C16.195 21.9796 14.9529 20.318 14.9529 18.609C15.0007 16.7102 16.2905 15.191 18.3925 15.191ZM19.2047 17.7545C19.2047 17.2798 18.8703 16.8051 18.3448 16.8051C17.7237 16.8051 17.3893 17.2798 17.2938 17.7545H19.2047Z" fill="#F25187"/>
</g>
<defs>
<clipPath id="clip0">
<rect width="192" height="77" fill="white"/>
</clipPath>
</defs>
</svg>
