<svg width="530" height="29" viewBox="0 0 530 29" fill="none" xmlns="http://www.w3.org/2000/svg">
<path d="M31.814 15H32.914V7.663H31.814V15ZM38.1173 15H39.1073V11.271C39.1073 10.149 38.5243 9.555 37.4023 9.555C36.5773 9.555 35.8733 10.006 35.5213 10.435V9.687H34.5313V15H35.5213V11.205C35.8073 10.809 36.3683 10.435 36.9843 10.435C37.6663 10.435 38.1173 10.721 38.1173 11.601V15ZM44.4598 15H45.4498V7.663H44.4598V10.457C44.0308 9.885 43.4038 9.555 42.7218 9.555C41.3358 9.555 40.3458 10.644 40.3458 12.349C40.3458 14.087 41.3358 15.132 42.7218 15.132C43.4258 15.132 44.0638 14.769 44.4598 14.241V15ZM44.4598 13.482C44.1848 13.911 43.5908 14.252 42.9858 14.252C41.9958 14.252 41.3798 13.449 41.3798 12.349C41.3798 11.238 41.9958 10.435 42.9858 10.435C43.5908 10.435 44.1848 10.787 44.4598 11.216V13.482ZM47.5192 8.796C47.8712 8.796 48.1572 8.521 48.1572 8.169C48.1572 7.817 47.8712 7.531 47.5192 7.531C47.1782 7.531 46.8812 7.817 46.8812 8.169C46.8812 8.521 47.1782 8.796 47.5192 8.796ZM47.0352 15H48.0252V9.687H47.0352V15ZM49.2725 12.338C49.2725 13.933 50.3725 15.132 51.9785 15.132C52.9795 15.132 53.5845 14.714 53.9695 14.197L53.3095 13.592C52.9905 14.032 52.5615 14.252 52.0225 14.252C50.9775 14.252 50.3065 13.438 50.3065 12.338C50.3065 11.238 50.9775 10.435 52.0225 10.435C52.5615 10.435 52.9905 10.644 53.3095 11.095L53.9695 10.49C53.5845 9.973 52.9795 9.555 51.9785 9.555C50.3725 9.555 49.2725 10.743 49.2725 12.338ZM58.3376 15H59.3276V11.414C59.3276 10.061 58.3486 9.555 57.1936 9.555C56.3356 9.555 55.6096 9.841 55.0156 10.424L55.4446 11.106C55.9176 10.633 56.4346 10.402 57.0396 10.402C57.7986 10.402 58.3376 10.798 58.3376 11.458V12.338C57.9306 11.865 57.3146 11.634 56.5996 11.634C55.7086 11.634 54.7516 12.162 54.7516 13.372C54.7516 14.538 55.7196 15.132 56.5996 15.132C57.3146 15.132 57.9196 14.879 58.3376 14.417V15ZM58.3376 13.834C58.0406 14.23 57.5236 14.439 56.9736 14.439C56.2586 14.439 55.7526 14.01 55.7526 13.383C55.7526 12.756 56.2586 12.327 56.9736 12.327C57.5236 12.327 58.0406 12.536 58.3376 12.932V13.834ZM62.3771 15.132C62.8941 15.132 63.2021 14.989 63.4111 14.791L63.1581 14.043C63.0591 14.153 62.8501 14.252 62.6191 14.252C62.2781 14.252 62.1021 13.977 62.1021 13.603V10.556H63.1801V9.687H62.1021V8.235H61.1121V9.687H60.2321V10.556H61.1121V13.823C61.1121 14.659 61.5411 15.132 62.3771 15.132ZM63.9464 12.338C63.9464 14.01 65.1124 15.132 66.6964 15.132C67.5544 15.132 68.3024 14.857 68.8304 14.34L68.3684 13.691C67.9724 14.098 67.3564 14.318 66.7954 14.318C65.7284 14.318 65.0684 13.57 64.9914 12.668H69.1934V12.426C69.1934 10.798 68.2034 9.555 66.6084 9.555C65.0574 9.555 63.9464 10.798 63.9464 12.338ZM66.6084 10.369C67.7304 10.369 68.2034 11.249 68.2254 11.953H64.9804C65.0354 11.227 65.5414 10.369 66.6084 10.369ZM69.9696 14.307C70.5086 14.857 71.2896 15.132 72.1806 15.132C73.5776 15.132 74.3256 14.417 74.3256 13.504C74.3256 12.283 73.2256 12.03 72.3016 11.821C71.6416 11.667 71.0696 11.513 71.0696 11.051C71.0696 10.622 71.4876 10.358 72.1586 10.358C72.8296 10.358 73.4236 10.633 73.7316 11.007L74.1716 10.314C73.7206 9.885 73.0606 9.555 72.1476 9.555C70.8496 9.555 70.1236 10.281 70.1236 11.128C70.1236 12.272 71.1796 12.514 72.0816 12.723C72.7636 12.877 73.3686 13.053 73.3686 13.581C73.3686 14.032 72.9726 14.34 72.2246 14.34C71.5096 14.34 70.8056 13.977 70.4426 13.581L69.9696 14.307ZM81.6911 15H82.6811V11.414C82.6811 10.061 81.7021 9.555 80.5471 9.555C79.6891 9.555 78.9631 9.841 78.3691 10.424L78.7981 11.106C79.2711 10.633 79.7881 10.402 80.3931 10.402C81.1521 10.402 81.6911 10.798 81.6911 11.458V12.338C81.2841 11.865 80.6681 11.634 79.9531 11.634C79.0621 11.634 78.1051 12.162 78.1051 13.372C78.1051 14.538 79.0731 15.132 79.9531 15.132C80.6681 15.132 81.2731 14.879 81.6911 14.417V15ZM81.6911 13.834C81.3941 14.23 80.8771 14.439 80.3271 14.439C79.6121 14.439 79.1061 14.01 79.1061 13.383C79.1061 12.756 79.6121 12.327 80.3271 12.327C80.8771 12.327 81.3941 12.536 81.6911 12.932V13.834ZM87.1035 15H88.0935V11.304C88.3245 10.908 88.9955 10.534 89.4905 10.534C89.6225 10.534 89.7325 10.545 89.8315 10.567V9.566C89.1275 9.566 88.5005 9.973 88.0935 10.501V9.687H87.1035V15ZM90.4903 12.338C90.4903 14.01 91.6563 15.132 93.2403 15.132C94.0983 15.132 94.8463 14.857 95.3743 14.34L94.9123 13.691C94.5163 14.098 93.9003 14.318 93.3393 14.318C92.2723 14.318 91.6123 13.57 91.5353 12.668H95.7373V12.426C95.7373 10.798 94.7473 9.555 93.1523 9.555C91.6013 9.555 90.4903 10.798 90.4903 12.338ZM93.1523 10.369C94.2743 10.369 94.7473 11.249 94.7693 11.953H91.5243C91.5793 11.227 92.0853 10.369 93.1523 10.369ZM101.75 17.024V9.687H100.76V10.446C100.364 9.918 99.7256 9.555 99.0106 9.555C97.6246 9.555 96.6456 10.6 96.6456 12.338C96.6456 14.076 97.6246 15.132 99.0106 15.132C99.7036 15.132 100.331 14.813 100.76 14.23V17.024H101.75ZM100.76 13.471C100.485 13.889 99.8796 14.252 99.2856 14.252C98.2956 14.252 97.6796 13.449 97.6796 12.338C97.6796 11.238 98.2956 10.435 99.2856 10.435C99.8796 10.435 100.485 10.787 100.76 11.216V13.471ZM106.91 15H107.9V9.687H106.91V13.504C106.613 13.9 106.052 14.252 105.436 14.252C104.754 14.252 104.314 13.988 104.314 13.108V9.687H103.324V13.438C103.324 14.56 103.885 15.132 105.018 15.132C105.832 15.132 106.503 14.714 106.91 14.274V15ZM109.953 8.796C110.305 8.796 110.591 8.521 110.591 8.169C110.591 7.817 110.305 7.531 109.953 7.531C109.612 7.531 109.315 7.817 109.315 8.169C109.315 8.521 109.612 8.796 109.953 8.796ZM109.469 15H110.459V9.687H109.469V15ZM112.036 15H113.026V11.304C113.257 10.908 113.928 10.534 114.423 10.534C114.555 10.534 114.665 10.545 114.764 10.567V9.566C114.06 9.566 113.433 9.973 113.026 10.501V9.687H112.036V15ZM115.423 12.338C115.423 14.01 116.589 15.132 118.173 15.132C119.031 15.132 119.779 14.857 120.307 14.34L119.845 13.691C119.449 14.098 118.833 14.318 118.272 14.318C117.205 14.318 116.545 13.57 116.468 12.668H120.67V12.426C120.67 10.798 119.68 9.555 118.085 9.555C116.534 9.555 115.423 10.798 115.423 12.338ZM118.085 10.369C119.207 10.369 119.68 11.249 119.702 11.953H116.457C116.512 11.227 117.018 10.369 118.085 10.369ZM125.692 15H126.682V7.663H125.692V10.457C125.263 9.885 124.636 9.555 123.954 9.555C122.568 9.555 121.578 10.644 121.578 12.349C121.578 14.087 122.568 15.132 123.954 15.132C124.658 15.132 125.296 14.769 125.692 14.241V15ZM125.692 13.482C125.417 13.911 124.823 14.252 124.218 14.252C123.228 14.252 122.612 13.449 122.612 12.349C122.612 11.238 123.228 10.435 124.218 10.435C124.823 10.435 125.417 10.787 125.692 11.216V13.482ZM134.844 8.796C135.196 8.796 135.482 8.521 135.482 8.169C135.482 7.817 135.196 7.531 134.844 7.531C134.503 7.531 134.206 7.817 134.206 8.169C134.206 8.521 134.503 8.796 134.844 8.796ZM131.346 15H132.336V10.556H133.414V9.687H132.336V9.335C132.336 8.697 132.633 8.367 133.128 8.367C133.326 8.367 133.48 8.411 133.601 8.488L133.832 7.751C133.601 7.619 133.304 7.553 132.963 7.553C132.017 7.553 131.346 8.191 131.346 9.335V9.687H130.466V10.556H131.346V15ZM134.36 15H135.35V9.687H134.36V15ZM136.596 12.338C136.596 14.01 137.762 15.132 139.346 15.132C140.204 15.132 140.952 14.857 141.48 14.34L141.018 13.691C140.622 14.098 140.006 14.318 139.445 14.318C138.378 14.318 137.718 13.57 137.641 12.668H141.843V12.426C141.843 10.798 140.853 9.555 139.258 9.555C137.707 9.555 136.596 10.798 136.596 12.338ZM139.258 10.369C140.38 10.369 140.853 11.249 140.875 11.953H137.63C137.685 11.227 138.191 10.369 139.258 10.369ZM143.081 15H144.071V7.663H143.081V15ZM149.432 15H150.422V7.663H149.432V10.457C149.003 9.885 148.376 9.555 147.694 9.555C146.308 9.555 145.318 10.644 145.318 12.349C145.318 14.087 146.308 15.132 147.694 15.132C148.398 15.132 149.036 14.769 149.432 14.241V15ZM149.432 13.482C149.157 13.911 148.563 14.252 147.958 14.252C146.968 14.252 146.352 13.449 146.352 12.349C146.352 11.238 146.968 10.435 147.958 10.435C148.563 10.435 149.157 10.787 149.432 11.216V13.482Z" fill="#C4C4C4"/>
<path d="M21.2774 14.808H22.5014L22.3574 12.096L24.6374 13.584L25.2374 12.528L22.8374 11.304L25.2374 10.056L24.6374 9L22.3574 10.464L22.5014 7.752H21.2774L21.3974 10.464L19.1174 9L18.5174 10.056L20.9414 11.304L18.5174 12.528L19.1174 13.584L21.3974 12.096L21.2774 14.808Z" fill="#F25187"/>
</svg>
